#Comment line ignore any data following # character 
#Hierarchical Translation and Rotation (.htr) file 
[Header]	
#Header keywords are followed by a single value 
FileType HTR		#Single word string
DataType HTRS		#Translation followed by rotation and scale data
FileVersion 1		#integer
NumSegments 64		#integer
NumFrames 3		#integer
DataFrameRate 30		#integer, data frame rate in this file
EulerRotationOrder ZYX
CalibrationUnits mm
RotationUnits Degrees
GlobalAxisofGravity Y
BoneLengthAxis Y
ScaleFactor 1.00
[SegmentNames&Hierarchy]
#CHILD	PARENT
Pinger_Root GLOBAL
Pelvis Pinger_Root
L_Hip Pelvis
R_Hip Pelvis
Rear_Leg01 Pelvis
Spine1 Pelvis
L_Leg01 L_Hip
L_Leg02 L_Leg01
L_Leg03 L_Leg02
L_Foot L_Leg03
L_Toe1_01 L_Foot
L_Toe2_01 L_Foot
L_Toe3_01 L_Foot
planeAlignerLeft L_Foot
L_Toe1_02 L_Toe1_01
L_Toe1_03 L_Toe1_02
L_Toe2_02 L_Toe2_01
L_Toe2_03 L_Toe2_02
L_Toe3_02 L_Toe3_01
L_Toe3_03 L_Toe3_02
planeLockWeightLeft planeAlignerLeft
R_Leg01 R_Hip
R_Leg02 R_Leg01
R_Leg03 R_Leg02
R_Foot R_Leg03
planeAlignerRight R_Foot
R_Toe1_01 R_Foot
R_Toe2_01 R_Foot
R_Toe3_01 R_Foot
planeLockWeightRight planeAlignerRight
R_Toe1_02 R_Toe1_01
R_Toe1_03 R_Toe1_02
R_Toe2_02 R_Toe2_01
R_Toe2_03 R_Toe2_02
R_Toe3_02 R_Toe3_01
R_Toe3_03 R_Toe3_02
Rear_Leg02 Rear_Leg01
Rear_Leg03 Rear_Leg02
Rear_Leg04 Rear_Leg03
Rear_Foot Rear_Leg04
planeAlignerCenter Rear_Foot
Rear_Toe1_01 Rear_Foot
Rear_Toe2_01 Rear_Foot
Rear_Toe3_01 Rear_Foot
planeLockWeightCenter planeAlignerCenter
Rear_Toe1_02 Rear_Toe1_01
Rear_Toe1_03 Rear_Toe1_02
Rear_Toe2_02 Rear_Toe2_01
Rear_Toe2_03 Rear_Toe2_02
Rear_Toe3_02 Rear_Toe3_01
Rear_Toe3_03 Rear_Toe3_02
Back_Bone Spine1
Head Spine1
Motor_Bone Back_Bone
Ping_Mechanism Back_Bone
BN_LookIK Head
bottomMouth Head
L_Mouth01 Head
L_mouthFront Head
mouthGun Head
R_Mouth01 Head
R_mouthFront Head
TopMouth Head
weapon_bone Head
[BasePosition]
#SegmentName Tx, Ty, Tz, Rx, Ry, Rz, BoneLength
Pinger_Root 0.000000 0.000000 0.000000 -90.000000 0.000000 0.000000 10.000000 
Pelvis 0.000000 0.000000 0.000000 0.000000 0.000000 0.000000 10.000000 
L_Hip 0.000000 0.000000 0.000000 0.000000 0.000000 0.000000 10.000000 
R_Hip 0.000000 0.000000 0.000000 0.000000 0.000000 0.000000 10.000000 
Rear_Leg01 0.000000 0.000000 0.000000 0.000000 0.000000 0.000000 10.000000 
Spine1 0.000000 0.000000 0.000000 0.000000 0.000000 0.000000 10.000000 
L_Leg01 0.000000 0.000000 0.000000 0.000000 0.000000 0.000000 10.000000 
L_Leg02 0.000000 0.000000 0.000000 0.000000 0.000000 0.000000 10.000000 
L_Leg03 0.000000 0.000000 0.000000 0.000000 0.000000 0.000000 10.000000 
L_Foot 0.000000 0.000000 0.000000 0.000000 0.000000 0.000000 10.000000 
L_Toe1_01 0.000000 0.000000 0.000000 0.000000 0.000000 0.000000 10.000000 
L_Toe2_01 0.000000 0.000000 0.000000 0.000000 0.000000 0.000000 10.000000 
L_Toe3_01 0.000000 0.000000 0.000000 0.000000 0.000000 0.000000 10.000000 
planeAlignerLeft 0.000000 0.000000 0.000000 0.000000 0.000000 0.000000 10.000000 
L_Toe1_02 0.000000 0.000000 0.000000 0.000000 0.000000 0.000000 10.000000 
L_Toe1_03 0.000000 0.000000 0.000000 0.000000 0.000000 0.000000 10.000000 
L_Toe2_02 0.000000 0.000000 0.000000 0.000000 0.000000 0.000000 10.000000 
L_Toe2_03 0.000000 0.000000 0.000000 0.000000 0.000000 0.000000 10.000000 
L_Toe3_02 0.000000 0.000000 0.000000 0.000000 0.000000 0.000000 10.000000 
L_Toe3_03 0.000000 0.000000 0.000000 0.000000 0.000000 0.000000 10.000000 
planeLockWeightLeft 0.000000 0.000000 0.000000 0.000000 0.000000 0.000000 10.000000 
R_Leg01 0.000000 0.000000 0.000000 0.000000 0.000000 0.000000 10.000000 
R_Leg02 0.000000 0.000000 0.000000 0.000000 0.000000 0.000000 10.000000 
R_Leg03 0.000000 0.000000 0.000000 0.000000 0.000000 0.000000 10.000000 
R_Foot 0.000000 0.000000 0.000000 0.000000 0.000000 0.000000 10.000000 
planeAlignerRight 0.000000 0.000000 0.000000 0.000000 0.000000 0.000000 10.000000 
R_Toe1_01 0.000000 0.000000 0.000000 0.000000 0.000000 0.000000 10.000000 
R_Toe2_01 0.000000 0.000000 0.000000 0.000000 0.000000 0.000000 10.000000 
R_Toe3_01 0.000000 0.000000 0.000000 0.000000 0.000000 0.000000 10.000000 
planeLockWeightRight 0.000000 0.000000 0.000000 0.000000 0.000000 0.000000 10.000000 
R_Toe1_02 0.000000 0.000000 0.000000 0.000000 0.000000 0.000000 10.000000 
R_Toe1_03 0.000000 0.000000 0.000000 0.000000 0.000000 0.000000 10.000000 
R_Toe2_02 0.000000 0.000000 0.000000 0.000000 0.000000 0.000000 10.000000 
R_Toe2_03 0.000000 0.000000 0.000000 0.000000 0.000000 0.000000 10.000000 
R_Toe3_02 0.000000 0.000000 0.000000 0.000000 0.000000 0.000000 10.000000 
R_Toe3_03 0.000000 0.000000 0.000000 0.000000 0.000000 0.000000 10.000000 
Rear_Leg02 0.000000 0.000000 0.000000 0.000000 0.000000 0.000000 10.000000 
Rear_Leg03 0.000000 0.000000 0.000000 0.000000 0.000000 0.000000 10.000000 
Rear_Leg04 0.000000 0.000000 0.000000 0.000000 0.000000 0.000000 10.000000 
Rear_Foot 0.000000 0.000000 0.000000 0.000000 0.000000 0.000000 10.000000 
planeAlignerCenter 0.000000 0.000000 0.000000 0.000000 0.000000 0.000000 10.000000 
Rear_Toe1_01 0.000000 0.000000 0.000000 0.000000 0.000000 0.000000 10.000000 
Rear_Toe2_01 0.000000 0.000000 0.000000 0.000000 0.000000 0.000000 10.000000 
Rear_Toe3_01 0.000000 0.000000 0.000000 0.000000 0.000000 0.000000 10.000000 
planeLockWeightCenter 0.000000 0.000000 0.000000 0.000000 0.000000 0.000000 10.000000 
Rear_Toe1_02 0.000000 0.000000 0.000000 0.000000 0.000000 0.000000 10.000000 
Rear_Toe1_03 0.000000 0.000000 0.000000 0.000000 0.000000 0.000000 10.000000 
Rear_Toe2_02 0.000000 0.000000 0.000000 0.000000 0.000000 0.000000 10.000000 
Rear_Toe2_03 0.000000 0.000000 0.000000 0.000000 0.000000 0.000000 10.000000 
Rear_Toe3_02 0.000000 0.000000 0.000000 0.000000 0.000000 0.000000 10.000000 
Rear_Toe3_03 0.000000 0.000000 0.000000 0.000000 0.000000 0.000000 10.000000 
Back_Bone 0.000000 0.000000 0.000000 0.000000 0.000000 0.000000 10.000000 
Head 0.000000 0.000000 0.000000 0.000000 0.000000 0.000000 10.000000 
Motor_Bone 0.000000 0.000000 0.000000 0.000000 0.000000 0.000000 10.000000 
Ping_Mechanism 0.000000 0.000000 0.000000 0.000000 0.000000 0.000000 10.000000 
BN_LookIK 0.000000 0.000000 0.000000 0.000000 0.000000 0.000000 10.000000 
bottomMouth 0.000000 0.000000 0.000000 0.000000 0.000000 0.000000 10.000000 
L_Mouth01 0.000000 0.000000 0.000000 0.000000 0.000000 0.000000 10.000000 
L_mouthFront 0.000000 0.000000 0.000000 0.000000 0.000000 0.000000 10.000000 
mouthGun 0.000000 0.000000 0.000000 0.000000 0.000000 0.000000 10.000000 
R_Mouth01 0.000000 0.000000 0.000000 0.000000 0.000000 0.000000 10.000000 
R_mouthFront 0.000000 0.000000 0.000000 0.000000 0.000000 0.000000 10.000000 
TopMouth 0.000000 0.000000 0.000000 0.000000 0.000000 0.000000 10.000000 
weapon_bone 0.000000 0.000000 0.000000 0.000000 0.000000 0.000000 10.000000 
#Beginning of Data. Separated by tabs
#Fr	Tx	Ty	Tz	Rx	Ry	Rz	SF
[Pinger_Root]
39 0.000000 0.000000 0.000000 -0.000075 -0.000000 -0.000020 0.000000
40 0.000000 0.000000 0.000000 -0.000075 -0.000000 -0.000020 0.000000
41 0.000000 0.000000 0.000000 -0.000075 -0.000000 -0.000020 0.000000
[Pelvis]
39 158.527893 1134.964844 5106.380859 -103.969666 -68.142159 83.268074 5233.393066
40 207.441589 1125.921631 5112.585449 -98.289200 -73.027435 77.978050 5239.204102
41 260.169830 1126.890503 5090.152344 -87.686783 -78.481583 67.608040 5219.887207
[L_Hip]
39 5.766392 125.831482 872.656799 -178.253342 -81.787758 87.381340 881.701050
40 5.766392 125.831482 872.656799 -178.253311 -81.787758 87.381340 881.701050
41 5.766392 125.831482 872.656799 -178.253311 -81.787758 87.381340 881.701050
[R_Hip]
39 5.765438 125.836372 -872.654907 -1.740377 81.786469 87.377815 881.699829
40 5.765438 125.836372 -872.654907 -1.740104 81.786423 87.377739 881.699829
41 5.765438 125.836372 -872.654907 -1.739889 81.786301 87.377502 881.699829
[Rear_Leg01]
39 -192.298416 -925.602966 -0.001907 126.793983 8.495422 177.572266 945.367432
40 -192.298416 -925.602966 -0.001907 127.156143 9.313382 -178.716171 945.367432
41 -192.298416 -925.602966 -0.001907 127.814125 11.941640 -172.581787 945.367432
[Spine1]
39 290.604584 5.007505 0.000477 19.063028 -0.079133 -7.559482 290.647736
40 290.604584 5.007505 0.000477 18.344227 -2.642846 -3.707756 290.647736
41 290.604584 5.007505 0.000477 17.599241 -5.389869 1.160826 290.647736
[L_Leg01]
39 761.932007 -0.002384 -0.069261 28.764505 -37.670723 -32.140556 761.932068
40 761.932007 -0.002384 -0.069261 39.515747 -31.896116 -45.945210 761.932068
41 761.932007 -0.002384 -0.069261 46.587910 -24.508732 -55.996700 761.932068
[L_Leg02]
39 1441.140503 -0.000954 -0.000715 -1.086324 0.393212 -110.265678 1441.140503
40 1441.140503 -0.000954 -0.000715 -1.372088 0.425227 -100.909554 1441.140503
41 1441.140503 -0.000954 -0.000715 -1.507552 0.437926 -92.698608 1441.140503
[L_Leg03]
39 1686.963989 -0.000715 -0.000954 0.026253 -0.006523 103.052635 1686.963989
40 1686.963989 -0.000715 -0.000954 0.022284 -0.009824 104.204079 1686.963989
41 1686.963989 -0.000715 -0.000954 0.022305 -0.009776 103.959450 1686.963989
[L_Foot]
39 3041.570068 -30.715107 11.297464 -15.975552 12.743335 48.648415 3041.746094
40 3041.570068 -30.715107 11.297464 -17.109209 14.317054 45.400341 3041.746094
41 3041.570068 -30.715107 11.297464 -17.917667 14.882861 42.879452 3041.746094
[L_Toe1_01]
39 -188.216690 -224.732346 -21.137953 89.646065 -5.770135 -152.886063 293.899567
40 -188.216690 -224.732346 -21.137953 89.465820 -5.596185 -149.795105 293.899567
41 -188.216690 -224.732346 -21.137953 89.295319 -5.412821 -146.705643 293.899567
[L_Toe2_01]
39 200.746536 -219.926590 148.838394 -74.783813 -12.138192 -56.581238 332.896027
40 200.746536 -219.926590 148.838394 -74.578712 -11.764261 -57.930279 332.896027
41 200.746536 -219.926590 148.838394 -74.002266 -10.833478 -61.497124 332.896027
[L_Toe3_01]
39 188.832520 -219.859131 -191.078659 -106.810074 6.999424 -57.785477 347.140900
40 188.832520 -219.859131 -191.078659 -107.193016 6.433741 -59.715080 347.140900
41 188.832520 -219.859131 -191.078659 -107.948540 5.607569 -63.029526 347.140900
[planeAlignerLeft]
39 0.812531 -811.448792 -0.314951 0.000000 -90.000000 -90.001900 811.449280
40 0.812531 -811.448792 -0.314951 0.000000 -90.000000 -90.001900 811.449280
41 0.812531 -811.448792 -0.314951 0.000000 -90.000000 -90.001900 811.449280
[L_Toe1_02]
39 413.761139 0.000477 0.000000 0.001405 -23.248917 0.001405 413.761139
40 413.761139 0.000477 0.000000 0.001399 -24.011879 0.001399 413.761139
41 413.761139 0.000477 0.000000 0.001399 -24.092785 0.001399 413.761139
[L_Toe1_03]
39 464.317322 0.000358 -0.000089 0.010623 77.314178 0.010623 464.317322
40 464.317322 0.000358 -0.000089 0.008164 73.470078 0.008164 464.317322
41 464.317322 0.000358 -0.000089 0.007935 72.989441 0.007935 464.317322
[L_Toe2_02]
39 342.235809 -0.000477 0.000238 -0.000592 -62.321865 -0.000592 342.235809
40 342.235809 -0.000477 0.000238 -0.002412 -58.847832 -0.002412 342.235809
41 342.235809 -0.000477 0.000238 -0.002400 -60.890972 -0.002400 342.235809
[L_Toe2_03]
39 420.210846 -0.000715 0.000000 -0.000821 64.590546 -0.004406 420.210846
40 420.210846 -0.000715 0.000000 -0.000357 59.289349 -0.003983 420.210846
41 420.210846 -0.000715 0.000000 -0.000617 62.490543 -0.004217 420.210846
[L_Toe3_02]
39 329.270111 0.000954 0.000000 -0.005301 -72.049210 0.005908 329.270111
40 329.270111 0.000954 0.000000 -0.010504 -69.697754 0.009336 329.270111
41 329.270111 0.000954 0.000000 -0.011017 -70.707298 0.009851 329.270111
[L_Toe3_03]
39 439.137451 -0.001907 0.000954 0.010789 77.510666 0.010789 439.137451
40 439.137451 -0.001907 0.000954 -0.002096 72.891060 -0.005632 439.137451
41 439.137451 -0.001907 0.000954 -0.002613 74.908592 -0.006140 439.137451
[planeLockWeightLeft]
39 -0.000954 0.000238 -0.000305 -0.011826 -0.004376 0.005620 0.001029
40 -0.000954 0.000238 -0.000305 -0.011826 -0.004376 0.005620 0.001029
41 -0.000954 0.000238 -0.000305 -0.011826 -0.004376 0.005620 0.001029
[R_Leg01]
39 761.455627 -0.001907 -0.000358 69.683701 -65.531876 91.186935 761.455688
40 761.455627 -0.001907 -0.000358 96.939346 -46.161327 68.630104 761.455688
41 761.455627 -0.001907 -0.000358 101.817383 -31.700951 66.055084 761.455688
[R_Leg02]
39 1441.140625 0.000000 -0.000238 2.264784 -1.082347 -141.665054 1441.140625
40 1441.140625 0.000000 -0.000238 4.055076 -1.634139 -122.381203 1441.140625
41 1441.140625 0.000000 -0.000238 5.087584 -1.880661 -109.667274 1441.140625
[R_Leg03]
39 1686.963989 0.000954 0.001431 -0.046071 0.009971 97.359848 1686.963989
40 1686.963989 0.000954 0.001431 -0.038854 0.010438 100.039078 1686.963989
41 1686.963989 0.000954 0.001431 -0.031768 0.010204 101.400620 1686.963989
[R_Foot]
39 3041.560059 -30.531288 -11.204481 32.336201 -42.412209 59.379623 3041.734131
40 3041.560059 -30.531288 -11.204481 32.584915 -42.835022 55.258896 3041.734131
41 3041.560059 -30.531288 -11.204481 31.669207 -42.882324 51.524975 3041.734131
[planeAlignerRight]
39 -0.635147 -812.270569 -0.364304 0.000000 -89.960434 -90.005180 812.270874
40 -0.635147 -812.270569 -0.364304 0.000000 -89.960434 -90.005180 812.270874
41 -0.635147 -812.270569 -0.364304 0.000000 -89.960434 -90.005180 812.270874
[R_Toe1_01]
39 -188.383347 -224.864899 21.052242 90.804924 4.958239 -135.903763 294.101532
40 -188.383347 -224.864899 21.052242 91.272057 1.817757 -141.223129 294.101532
41 -188.383347 -224.864899 21.052242 91.590485 -1.308676 -148.142319 294.101532
[R_Toe2_01]
39 200.637817 -220.002121 -148.787384 -104.983536 8.678101 -60.356361 332.857574
40 200.637817 -220.002121 -148.787384 -102.305313 9.436831 -46.843990 332.857574
41 200.637817 -220.002121 -148.787384 -102.977325 4.780345 -56.944653 332.857574
[R_Toe3_01]
39 188.606735 -220.092957 191.126343 -71.783028 -3.124936 -66.277542 347.192566
40 188.606735 -220.092957 191.126343 -72.604279 -9.833014 -55.794460 347.192566
41 188.606735 -220.092957 191.126343 -70.893867 -12.143434 -59.638802 347.192566
[planeLockWeightRight]
39 -0.000477 0.000000 0.000000 -0.011823 -0.004379 -0.000027 0.000477
40 -0.000477 0.000000 0.000000 -0.011823 -0.004379 -0.000027 0.000477
41 -0.000477 0.000000 0.000000 -0.011823 -0.004379 -0.000027 0.000477
[R_Toe1_02]
39 413.762085 0.000477 -0.000119 0.001412 -22.436573 0.001412 413.762085
40 413.762085 0.000477 -0.000119 0.001398 -24.133242 0.001398 413.762085
41 413.762085 0.000477 -0.000119 0.001405 -23.294357 0.001405 413.762085
[R_Toe1_03]
39 464.317810 0.000000 0.001088 0.015019 81.036522 0.015019 464.317810
40 464.317810 0.000000 0.001088 0.007837 72.774307 0.007837 464.317810
41 464.317810 0.000000 0.001088 0.010467 77.124329 0.010467 464.317810
[R_Toe2_02]
39 342.234741 -0.000954 0.000238 0.001325 -34.649078 0.001325 342.234741
40 342.234741 -0.000954 0.000238 0.001483 -14.588212 0.001483 342.234741
41 342.234741 -0.000954 0.000238 0.001236 -53.460682 0.001236 342.234741
[R_Toe2_03]
39 420.210846 0.000715 -0.000268 -0.001683 30.130507 0.006387 420.210846
40 420.210846 0.000715 -0.000268 -0.002627 12.146561 0.006363 420.210846
41 420.210846 0.000715 -0.000268 -0.003591 51.402668 0.000113 420.210846
[R_Toe3_02]
39 329.270355 -0.000477 -0.000954 -0.002454 -52.333641 -0.002454 329.270355
40 329.270355 -0.000477 -0.000954 -0.002609 -35.879219 -0.002609 329.270355
41 329.270355 -0.000477 -0.000954 -0.002430 -55.944141 -0.002430 329.270355
[R_Toe3_03]
39 439.137939 0.000238 0.001431 0.009805 46.721359 0.006043 439.137939
40 439.137939 0.000238 0.001431 0.006375 29.312044 -0.001729 439.137939
41 439.137939 0.000238 0.001431 0.010663 51.260010 0.006957 439.137939
[Rear_Leg02]
39 1162.777710 -0.029802 0.005960 2.359117 10.701528 -82.672073 1162.777710
40 1162.777710 -0.029802 0.005960 1.484149 10.042361 -89.171211 1162.777710
41 1162.777710 -0.029802 0.005960 0.421453 9.158142 -94.950729 1162.777710
[Rear_Leg03]
39 607.192505 -0.013351 -0.073195 0.006625 -0.001578 55.009037 607.192505
40 607.192505 -0.013351 -0.073195 0.006599 -0.001682 56.817574 607.192505
41 607.192505 -0.013351 -0.073195 0.006561 -0.001826 59.317783 607.192505
[Rear_Leg04]
39 995.874512 -0.020504 -0.011921 -0.036127 -0.016271 41.507481 995.874573
40 995.874512 -0.020504 -0.011921 -0.036544 -0.015312 44.532349 995.874573
41 995.874512 -0.020504 -0.011921 -0.039147 -0.018411 48.896198 995.874573
[Rear_Foot]
39 3096.176270 -0.067472 -0.041425 100.629150 80.133354 -70.186577 3096.176270
40 3096.176270 -0.067472 -0.041425 106.216629 80.683334 -65.018089 3096.176270
41 3096.176270 -0.067472 -0.041425 114.724693 81.122963 -57.391930 3096.176270
[planeAlignerCenter]
39 0.350077 0.966311 -838.790894 0.000009 0.000003 -179.999985 838.791565
40 0.350077 0.966311 -838.790894 0.000009 0.000003 -179.999985 838.791565
41 0.350077 0.966311 -838.790894 0.000009 0.000003 -179.999985 838.791565
[Rear_Toe1_01]
39 0.653352 83.966492 -371.173737 2.918942 12.737379 99.805542 380.553192
40 0.653352 83.966492 -371.173737 2.868769 12.726740 99.629585 380.553192
41 0.653352 83.966492 -371.173737 2.818629 12.715942 99.453636 380.553192
[Rear_Toe2_01]
39 178.200760 -294.826019 -362.060547 -4.896485 38.730221 -84.705978 499.765686
40 178.200760 -294.826019 -362.060547 -4.807658 38.762737 -84.468742 499.765686
41 178.200760 -294.826019 -362.060547 -4.718598 38.794971 -84.231300 499.765686
[Rear_Toe3_01]
39 -153.359680 -308.780914 -362.060852 -4.152982 39.684200 -122.309593 499.952881
40 -153.359680 -308.780914 -362.060852 -4.085557 39.697990 -122.101517 499.952881
41 -153.359680 -308.780914 -362.060852 -4.018049 39.711605 -121.893402 499.952881
[planeLockWeightCenter]
39 -0.000062 0.000238 0.000000 -0.011814 -0.004373 -0.000015 0.000246
40 -0.000062 0.000238 0.000000 -0.011814 -0.004373 -0.000015 0.000246
41 -0.000062 0.000238 0.000000 -0.011814 -0.004373 -0.000015 0.000246
[Rear_Toe1_02]
39 379.707825 0.194073 0.000477 -0.002643 -33.049873 -0.002643 379.707855
40 379.707825 0.194073 0.000477 -0.002643 -33.042850 -0.002643 379.707855
41 379.707825 0.194073 0.000477 -0.002643 -33.035828 -0.002643 379.707855
[Rear_Toe1_03]
39 500.129700 0.165701 0.000119 -0.019535 86.905289 -0.023033 500.129761
40 500.129700 0.165701 0.000119 -0.020327 87.016335 -0.023825 500.129761
41 500.129700 0.165701 0.000119 -0.021180 87.127441 -0.024678 500.129761
[Rear_Toe2_02]
39 340.494507 0.000238 -0.000954 -0.001847 -87.255905 -0.001847 340.494507
40 340.494507 0.000238 -0.000954 -0.001688 -87.205719 -0.001688 340.494507
41 340.494507 0.000238 -0.000954 -0.001529 -87.155525 -0.001529 340.494507
[Rear_Toe2_03]
39 433.103577 0.000000 0.000238 -179.993805 75.090591 -179.997330 433.103546
40 433.103577 0.000000 0.000238 -179.993774 75.207306 -179.997299 433.103546
41 433.103577 0.000000 0.000238 -179.993744 75.324020 -179.997269 433.103546
[Rear_Toe3_02]
39 340.494141 -0.000358 -0.000477 0.001179 -78.903259 0.001179 340.494171
40 340.494141 -0.000358 -0.000477 0.001179 -79.016632 0.001179 340.494171
41 340.494141 -0.000358 -0.000477 0.001179 -79.129982 0.001179 340.494171
[Rear_Toe3_03]
39 433.103577 0.001431 -0.000238 -0.016163 85.429153 -0.012664 433.103546
40 433.103577 0.001431 -0.000238 -0.016944 85.664017 -0.013444 433.103546
41 433.103577 0.001431 -0.000238 -0.017813 85.898880 -0.014314 433.103546
[Back_Bone]
39 1312.175781 -701.934692 0.000954 2.779956 -1.125973 -84.636047 1488.125488
40 1312.175781 -701.934692 0.000954 2.859122 -0.260079 -84.819756 1488.125488
41 1312.175781 -701.934692 0.000954 2.885024 0.563701 -84.689583 1488.125488
[Head]
39 1406.159424 809.709290 0.001431 1.735974 -9.431518 12.824785 1622.625488
40 1406.159424 809.709290 0.001431 1.774223 -9.025206 12.979115 1622.625488
41 1406.159424 809.709290 0.001431 1.869458 -7.918739 13.414802 1622.625488
[Motor_Bone]
39 1158.364380 -417.834747 0.000477 -3.693260 -1.023705 -107.012611 1231.419434
40 1158.364380 -417.834747 0.000477 -3.349763 -0.589515 -106.577873 1231.419434
41 1158.364380 -417.834747 0.000477 -2.783370 0.002436 -105.983177 1231.419434
[Ping_Mechanism]
39 1323.857422 -448.004120 10.535342 0.000103 -0.000053 82.120995 1397.646973
40 1298.326538 -446.224335 17.315451 0.000103 -0.000053 82.120995 1372.977661
41 1268.390015 -442.767914 23.095032 0.000103 -0.000053 82.120995 1343.648071
[BN_LookIK]
39 193.241119 1380.371704 -0.002861 0.000000 89.965736 -31.038179 1393.832153
40 193.241119 1380.371704 -0.002861 0.000000 89.965736 -31.038179 1393.832153
41 193.241119 1380.371704 -0.002861 0.000000 89.965736 -31.038179 1393.832153
[bottomMouth]
39 -435.092926 615.759399 -0.000954 -0.000022 0.000016 73.527184 753.966492
40 -435.092926 615.759399 -0.000954 -0.000022 0.000016 73.527184 753.966492
41 -435.092926 615.759399 -0.000954 -0.000022 0.000016 73.527184 753.966492
[L_Mouth01]
39 554.440979 7.658243 838.222046 150.204178 23.759130 109.605339 1005.027161
40 554.440979 7.658243 838.222046 150.204178 23.759130 109.605339 1005.027161
41 554.440979 7.658243 838.222046 150.204178 23.759130 109.605339 1005.027161
[L_mouthFront]
39 551.629089 934.514771 339.150421 0.000081 2.804060 79.119301 1136.941284
40 551.629089 934.514771 339.150421 0.000081 2.804060 79.119301 1136.941284
41 551.629089 934.514771 339.150421 0.000081 2.804060 79.119301 1136.941284
[mouthGun]
39 55.332661 1627.420898 0.000000 0.000023 0.000009 -11.038128 1628.361328
40 55.332661 1627.420898 0.000000 0.000023 0.000009 -11.038128 1628.361328
41 55.332661 1627.420898 0.000000 0.000023 0.000009 -11.038128 1628.361328
[R_Mouth01]
39 554.442383 7.659197 -838.223938 29.795891 -23.759109 109.605331 1005.029541
40 554.442383 7.659197 -838.223938 29.795891 -23.759109 109.605331 1005.029541
41 554.442383 7.659197 -838.223938 29.795891 -23.759109 109.605331 1005.029541
[R_mouthFront]
39 551.629089 934.514282 -339.151367 0.000029 -2.803930 79.119133 1136.941162
40 551.629089 934.514282 -339.151367 0.000029 -2.803930 79.119133 1136.941162
41 551.629089 934.514282 -339.151367 0.000029 -2.803930 79.119133 1136.941162
[TopMouth]
39 461.269867 -56.106091 -0.008583 -0.000059 -0.000268 92.025169 464.669525
40 461.269867 -56.106091 -0.008583 -0.000059 -0.000268 92.025169 464.669525
41 461.269867 -56.106091 -0.008583 -0.000059 -0.000268 92.025169 464.669525
[weapon_bone]
39 -987.239868 1448.372803 0.001431 0.000000 89.965736 -31.038221 1752.833740
40 -987.239868 1448.372803 0.001431 0.000000 89.965736 -31.038221 1752.833740
41 -987.239868 1448.372803 0.001431 0.000000 89.965736 -31.038221 1752.833740
